<svg width="80" height="80" viewBox="0 0 80 80" fill="none" xmlns="http://www.w3.org/2000/svg" className="size-full">
<g clip-path="url(#clip0_1738_654)">
<path d="M40 33.3334C43.5362 33.3334 46.9276 31.9287 49.428 29.4282C51.9285 26.9277 53.3333 23.5363 53.3333 20.0001C53.3333 16.4639 51.9285 13.0725 49.428 10.572C46.9276 8.07151 43.5362 6.66675 40 6.66675C36.4637 6.66675 33.0724 8.07151 30.5719 10.572C28.0714 13.0725 26.6666 16.4639 26.6666 20.0001C26.6666 23.5363 28.0714 26.9277 30.5719 29.4282C33.0724 31.9287 36.4637 33.3334 40 33.3334ZM38.4333 36.6667C30.0082 36.6667 21.9283 40.0136 15.9709 45.971C10.0135 51.9284 6.66663 60.0084 6.66663 68.4334C6.66663 71.1334 8.86663 73.3334 11.5666 73.3334H12.3C13.1 73.3334 13.7666 72.7668 13.9666 72.0001C14.9333 68.2668 16.7666 64.7668 18.3666 62.3001C18.8333 61.6001 19.8 61.9668 19.7 62.8001L18.8333 71.5001C18.7666 72.5001 19.5 73.3334 20.5 73.3334H59.5C59.7336 73.3346 59.9649 73.2866 60.1787 73.1926C60.3926 73.0987 60.5844 72.9608 60.7415 72.7879C60.8987 72.615 61.0178 72.411 61.091 72.1892C61.1642 71.9673 61.19 71.7325 61.1666 71.5001L60.2666 62.8334C60.2 61.9668 61.1666 61.6001 61.6333 62.3001C63.2333 64.7668 65.0666 68.3001 66.0333 71.9668C66.2333 72.7668 66.9 73.3334 67.7 73.3334H68.4333C71.1333 73.3334 73.3333 71.1334 73.3333 68.4334C73.3333 60.0084 69.9865 51.9284 64.029 45.971C58.0716 40.0136 49.9917 36.6667 41.5666 36.6667H38.4333Z" fill="currentColor"/>
<path d="M77.8593 55.8929L77.8664 55.8858L77.8734 55.8787C78.7237 55.0111 79.2 53.8448 79.2 52.63C79.2 51.7224 78.9341 50.8419 78.4451 50.0928V49.9148L77.8451 49.3266C76.9775 48.4763 75.8112 48 74.5964 48C73.3816 48 72.2153 48.4763 71.3477 49.3266L71.3406 49.3336L71.3335 49.3407L53.4667 67.2076L46.2532 60.0159C45.8707 59.5417 45.3982 59.1471 44.8624 58.8549C44.2786 58.5367 43.6332 58.3476 42.9699 58.3004C42.3067 58.2533 41.6411 58.3492 41.0181 58.5817C40.3952 58.8142 39.8295 59.1779 39.3593 59.6481C38.8891 60.1182 38.5255 60.6839 38.293 61.3069C38.0605 61.9298 37.9645 62.5954 38.0117 63.2587C38.0588 63.9219 38.2479 64.5673 38.5662 65.1511C38.8586 65.6875 39.2537 66.1604 39.7285 66.5431L50.206 77.0205L50.213 77.0275L50.2202 77.0345C51.0877 77.8849 52.2541 78.3612 53.4688 78.3612C54.6836 78.3612 55.85 77.8849 56.7175 77.0345L56.7246 77.0275L56.7317 77.0205L77.8593 55.8929Z" fill="currentColor" style="stroke: var(--tw-stroke, #000)" stroke-width="4"/>
</g>
<defs>
<clipPath id="clip0_1738_654">
<rect width="80" height="80" fill="white"/>
</clipPath>
</defs>
</svg>
