<svg width="80" height="80" viewBox="0 0 80 80" fill="none" xmlns="http://www.w3.org/2000/svg">
<path d="M6.66663 24.6668C6.66663 19.8929 8.56305 15.3146 11.9387 11.9389C15.3144 8.56326 19.8927 6.66683 24.6666 6.66683C25.8666 6.66683 27 7.40017 27.4333 8.50017L33.8666 23.9668C34.1756 24.7168 34.2005 25.5537 33.9366 26.3208C33.6727 27.0878 33.1383 27.7323 32.4333 28.1335L23.3333 33.3335C24.3079 39.1685 27.0803 44.5536 31.2634 48.7367C35.4466 52.9198 40.8316 55.6922 46.6666 56.6668L50.4 49.2002C50.7522 48.4925 51.3445 47.933 52.071 47.6216C52.7976 47.3102 53.6112 47.2672 54.3666 47.5002L71.2333 52.7002C72.5 53.0668 73.3333 54.2335 73.3333 55.5335C73.3333 65.3335 65.3333 73.3335 55.5333 73.3335H54.3C27.9666 73.3335 6.66663 52.0002 6.66663 25.7002V24.6668ZM43.3333 10.0002C43.3333 9.11611 43.6845 8.26826 44.3096 7.64314C44.9347 7.01802 45.7826 6.66683 46.6666 6.66683C53.7391 6.66683 60.5218 9.47635 65.5228 14.4773C70.5238 19.4783 73.3333 26.2611 73.3333 33.3335C73.3333 34.2176 72.9821 35.0654 72.357 35.6905C71.7319 36.3156 70.884 36.6668 70 36.6668C69.1159 36.6668 68.2681 36.3156 67.6429 35.6905C67.0178 35.0654 66.6666 34.2176 66.6666 33.3335C66.6666 28.0292 64.5595 22.9421 60.8088 19.1914C57.058 15.4406 51.971 13.3335 46.6666 13.3335C45.7826 13.3335 44.9347 12.9823 44.3096 12.3572C43.6845 11.7321 43.3333 10.8842 43.3333 10.0002Z" fill="currentColor"/>
<path d="M43.3333 23.3335C43.3333 22.4494 43.6845 21.6016 44.3096 20.9765C44.9347 20.3514 45.7826 20.0002 46.6666 20.0002C50.2029 20.0002 53.5942 21.4049 56.0947 23.9054C58.5952 26.4059 60 29.7973 60 33.3335C60 34.2175 59.6488 35.0654 59.0237 35.6905C58.3986 36.3156 57.5507 36.6668 56.6666 36.6668C55.7826 36.6668 54.9347 36.3156 54.3096 35.6905C53.6845 35.0654 53.3333 34.2175 53.3333 33.3335C53.3333 31.5654 52.6309 29.8697 51.3807 28.6194C50.1304 27.3692 48.4348 26.6668 46.6666 26.6668C45.7826 26.6668 44.9347 26.3156 44.3096 25.6905C43.6845 25.0654 43.3333 24.2175 43.3333 23.3335Z" fill="currentColor"/>
<mask id="call-system-message">
<path d="M6.66663 24.6668C6.66663 19.8929 8.56305 15.3146 11.9387 11.9389C15.3144 8.56326 19.8927 6.66683 24.6666 6.66683C25.8666 6.66683 27 7.40017 27.4333 8.50017L33.8666 23.9668C34.1756 24.7168 34.2005 25.5537 33.9366 26.3208C33.6727 27.0878 33.1383 27.7323 32.4333 28.1335L23.3333 33.3335C24.3079 39.1685 27.0803 44.5536 31.2634 48.7367C35.4466 52.9198 40.8316 55.6922 46.6666 56.6668L50.4 49.2002C50.7522 48.4925 51.3445 47.933 52.071 47.6216C52.7976 47.3102 53.6112 47.2672 54.3666 47.5002L71.2333 52.7002C72.5 53.0668 73.3333 54.2335 73.3333 55.5335C73.3333 65.3335 65.3333 73.3335 55.5333 73.3335H54.3C27.9666 73.3335 6.66663 52.0002 6.66663 25.7002V24.6668ZM43.3333 10.0002C43.3333 9.11611 43.6845 8.26826 44.3096 7.64314C44.9347 7.01802 45.7826 6.66683 46.6666 6.66683C53.7391 6.66683 60.5218 9.47635 65.5228 14.4773C70.5238 19.4783 73.3333 26.2611 73.3333 33.3335C73.3333 34.2176 72.9821 35.0654 72.357 35.6905C71.7319 36.3156 70.884 36.6668 70 36.6668C69.1159 36.6668 68.2681 36.3156 67.6429 35.6905C67.0178 35.0654 66.6666 34.2176 66.6666 33.3335C66.6666 28.0292 64.5595 22.9421 60.8088 19.1914C57.058 15.4406 51.971 13.3335 46.6666 13.3335C45.7826 13.3335 44.9347 12.9823 44.3096 12.3572C43.6845 11.7321 43.3333 10.8842 43.3333 10.0002Z" fill="green"/>
<path d="M43.3333 23.3335C43.3333 22.4494 43.6845 21.6016 44.3096 20.9765C44.9347 20.3514 45.7826 20.0002 46.6666 20.0002C50.2029 20.0002 53.5942 21.4049 56.0947 23.9054C58.5952 26.4059 60 29.7973 60 33.3335C60 34.2175 59.6488 35.0654 59.0237 35.6905C58.3986 36.3156 57.5507 36.6668 56.6666 36.6668C55.7826 36.6668 54.9347 36.3156 54.3096 35.6905C53.6845 35.0654 53.3333 34.2175 53.3333 33.3335C53.3333 31.5654 52.6309 29.8697 51.3807 28.6194C50.1304 27.3692 48.4348 26.6668 46.6666 26.6668C45.7826 26.6668 44.9347 26.3156 44.3096 25.6905C43.6845 25.0654 43.3333 24.2175 43.3333 23.3335Z" fill="green"/>
</mask>
</svg>
