<svg width="80" height="80" viewBox="0 0 80 80" fill="none" xmlns="http://www.w3.org/2000/svg" className="size-full">
<g clip-path="url(#clip0_1705_650)">
<path d="M40 33.3334C43.5362 33.3334 46.9276 31.9287 49.428 29.4282C51.9285 26.9277 53.3333 23.5363 53.3333 20.0001C53.3333 16.4639 51.9285 13.0725 49.428 10.572C46.9276 8.07151 43.5362 6.66675 40 6.66675C36.4637 6.66675 33.0724 8.07151 30.5719 10.572C28.0714 13.0725 26.6666 16.4639 26.6666 20.0001C26.6666 23.5363 28.0714 26.9277 30.5719 29.4282C33.0724 31.9287 36.4637 33.3334 40 33.3334ZM38.4333 36.6667C30.0082 36.6667 21.9283 40.0136 15.9709 45.971C10.0135 51.9284 6.66663 60.0084 6.66663 68.4334C6.66663 71.1334 8.86663 73.3334 11.5666 73.3334H12.3C13.1 73.3334 13.7666 72.7668 13.9666 72.0001C14.9333 68.2668 16.7666 64.7668 18.3666 62.3001C18.8333 61.6001 19.8 61.9668 19.7 62.8001L18.8333 71.5001C18.7666 72.5001 19.5 73.3334 20.5 73.3334H59.5C59.7336 73.3346 59.9649 73.2866 60.1787 73.1926C60.3926 73.0987 60.5844 72.9608 60.7415 72.7879C60.8987 72.615 61.0178 72.411 61.091 72.1892C61.1642 71.9673 61.19 71.7325 61.1666 71.5001L60.2666 62.8334C60.2 61.9668 61.1666 61.6001 61.6333 62.3001C63.2333 64.7668 65.0666 68.3001 66.0333 71.9668C66.2333 72.7668 66.9 73.3334 67.7 73.3334H68.4333C71.1333 73.3334 73.3333 71.1334 73.3333 68.4334C73.3333 60.0084 69.9865 51.9284 64.029 45.971C58.0716 40.0136 49.9917 36.6667 41.5666 36.6667H38.4333Z" fill="currentColor"/>
<path d="M53.9053 48.5721C52.4908 48.5721 51.1343 49.134 50.1341 50.1342C49.1339 51.1344 48.572 52.4909 48.572 53.9054C48.572 55.3199 49.1339 56.6765 50.1341 57.6766L55.7909 63.3335L50.1341 68.9904C49.1339 69.9905 48.572 71.3471 48.572 72.7616C48.572 74.1761 49.1339 75.5326 50.1341 76.5328C51.1343 77.533 52.4908 78.0949 53.9053 78.0949C55.3198 78.0949 56.6764 77.533 57.6766 76.5328L63.3334 70.876L68.9903 76.5328C69.9905 77.533 71.347 78.0949 72.7615 78.0949C74.176 78.0949 75.5325 77.533 76.5327 76.5328C77.5329 75.5326 78.0948 74.1761 78.0948 72.7616C78.0948 71.3471 77.5329 69.9905 76.5327 68.9904L70.8759 63.3335L76.5327 57.6766C77.5329 56.6765 78.0948 55.3199 78.0948 53.9054C78.0948 52.4909 77.5329 51.1344 76.5327 50.1342C75.5325 49.134 74.176 48.5721 72.7615 48.5721C71.347 48.5721 69.9905 49.134 68.9903 50.1342L63.3334 55.791L57.6766 50.1342C56.6764 49.134 55.3198 48.5721 53.9053 48.5721Z" fill="currentColor" stroke="black" stroke-width="4"/>
</g>
<defs>
<clipPath id="clip0_1705_650">
<rect width="80" height="80" fill="white"/>
</clipPath>
</defs>
</svg>
