<svg width="81" height="80" viewBox="0 0 81 80" fill="none" xmlns="http://www.w3.org/2000/svg">
<path fill-rule="evenodd" clip-rule="evenodd" d="M40.5 76.666C50.2246 76.666 59.5509 72.8029 66.4272 65.9266C73.3035 59.0503 77.1666 49.724 77.1666 39.9994C77.1666 30.2748 73.3035 20.9484 66.4272 14.0721C59.5509 7.19577 50.2246 3.33269 40.5 3.33269C30.7754 3.33269 21.449 7.19577 14.5727 14.0721C7.69638 20.9484 3.83329 30.2748 3.83329 39.9994C3.83329 49.724 7.69638 59.0503 14.5727 65.9266C21.449 72.8029 30.7754 76.666 40.5 76.666ZM56.1666 24.3327C55.5435 23.7219 54.7058 23.3798 53.8333 23.3798C52.9608 23.3798 52.1231 23.7219 51.5 24.3327L40.5 35.266L29.5 24.266C28.8585 23.7241 28.0361 23.4443 27.1972 23.4826C26.3584 23.5208 25.5648 23.8742 24.9753 24.4722C24.3857 25.0702 24.0436 25.8686 24.0173 26.708C23.9909 27.5473 24.2824 28.3656 24.8333 28.9994L35.7666 39.9994L24.7666 50.9994C24.42 51.3007 24.1394 51.6704 23.9424 52.0854C23.7454 52.5003 23.6362 52.9514 23.6218 53.4105C23.6074 53.8696 23.6881 54.3267 23.8587 54.7532C24.0293 55.1796 24.2862 55.5662 24.6133 55.8887C24.9404 56.2112 25.3306 56.4626 25.7594 56.6271C26.1882 56.7917 26.6464 56.8658 27.1053 56.8449C27.5641 56.824 28.0137 56.7085 28.4258 56.5056C28.8378 56.3027 29.2036 56.0169 29.5 55.666L40.5 44.7327L51.5 55.7327C52.1415 56.2746 52.9638 56.5544 53.8027 56.5161C54.6416 56.4779 55.4351 56.1245 56.0246 55.5265C56.6142 54.9285 56.9563 54.1301 56.9827 53.2908C57.009 52.4514 56.7176 51.6331 56.1666 50.9994L45.2333 39.9994L56.2333 28.9994C56.844 28.3763 57.1861 27.5385 57.1861 26.666C57.1861 25.7935 56.844 24.9558 56.2333 24.3327H56.1666Z" fill="#EB3D47"/>
</svg>
