<svg width="80" height="57" viewBox="0 0 80 57" fill="none" xmlns="http://www.w3.org/2000/svg">
<path fill-rule="evenodd" clip-rule="evenodd" d="M78.3765 1.83497C79.4171 2.89663 80 4.32398 80 5.81059C80 7.2972 79.4171 8.72455 78.3765 9.78621L32.9408 55.2219C31.8792 56.2625 30.4518 56.8454 28.9652 56.8454C27.4786 56.8454 26.0513 56.2625 24.9896 55.2219L2.27178 32.504C1.62082 32.0158 1.08236 31.3934 0.692876 30.679C0.303392 29.9645 0.0719719 29.1747 0.014289 28.3631C-0.0433939 27.5514 0.0740051 26.7368 0.358539 25.9745C0.643072 25.2122 1.08809 24.5199 1.66347 23.9445C2.23885 23.3691 2.93115 22.9241 3.69349 22.6396C4.45583 22.355 5.27041 22.2376 6.08207 22.2953C6.89373 22.353 7.68352 22.5844 8.39795 22.9739C9.11239 23.3634 9.73479 23.9018 10.223 24.5528L28.9652 43.2382L70.4252 1.77818C71.4869 0.737547 72.9143 0.154663 74.4009 0.154663C75.8875 0.154663 77.3148 0.737547 78.3765 1.77818V1.83497Z" fill="currentColor"/>
</svg>
