<svg width="81" height="80" viewBox="0 0 81 80" fill="none" xmlns="http://www.w3.org/2000/svg">
<path d="M18.1667 30.9993C18.7898 30.3885 19.6275 30.0464 20.5 30.0464C21.3725 30.0464 22.2103 30.3885 22.8334 30.9993L40.5 48.6326L58.1667 30.9659C58.468 30.6193 58.8378 30.3387 59.2527 30.1417C59.6676 29.9447 60.1188 29.8355 60.5779 29.8211C61.037 29.8067 61.4941 29.8874 61.9205 30.058C62.347 30.2286 62.7336 30.4855 63.056 30.8126C63.3785 31.1397 63.6299 31.5299 63.7945 31.9587C63.959 32.3875 64.0331 32.8457 64.0122 33.3046C63.9913 33.7634 63.8758 34.213 63.673 34.6251C63.4701 35.0372 63.1843 35.4029 62.8334 35.6993L42.8334 55.6993C42.2103 56.31 41.3725 56.6521 40.5 56.6521C39.6275 56.6521 38.7898 56.31 38.1667 55.6993L18.1667 35.6993C17.8543 35.3894 17.6063 35.0207 17.4371 34.6145C17.2678 34.2083 17.1807 33.7726 17.1807 33.3326C17.1807 32.8926 17.2678 32.4569 17.4371 32.0507C17.6063 31.6445 17.8543 31.2758 18.1667 30.9659V30.9993Z" fill="currentColor"/>
</svg>
