<svg width="81" height="80" viewBox="0 0 81 80" fill="none" xmlns="http://www.w3.org/2000/svg">
<path d="M59.5 32.3327C59.9814 31.6908 60.2152 30.8968 60.1583 30.0964C60.1014 29.296 59.7577 28.543 59.1904 27.9757C58.623 27.4083 57.87 27.0646 57.0696 27.0077C56.2693 26.9509 55.4752 27.1846 54.8333 27.666L33.8333 48.5994L26.1667 40.9327C25.5252 40.3908 24.7028 40.111 23.8639 40.1492C23.0251 40.1875 22.2315 40.5409 21.642 41.1389C21.0524 41.7368 20.7103 42.5353 20.684 43.3746C20.6576 44.2139 20.9491 45.0323 21.5 45.666L31.5 55.666C32.1231 56.2768 32.9608 56.6189 33.8333 56.6189C34.7058 56.6189 35.5436 56.2768 36.1667 55.666L59.5 32.3327Z" fill="white"/>
<path fill-rule="evenodd" clip-rule="evenodd" d="M40.5 76.666C50.2246 76.666 59.5509 72.8029 66.4273 65.9266C73.3036 59.0503 77.1667 49.724 77.1667 39.9994C77.1667 30.2747 73.3036 20.9484 66.4273 14.0721C59.5509 7.19577 50.2246 3.33269 40.5 3.33269C30.7754 3.33269 21.4491 7.19577 14.5728 14.0721C7.69642 20.9484 3.83333 30.2747 3.83333 39.9994C3.83333 49.724 7.69642 59.0503 14.5728 65.9266C21.4491 72.8029 30.7754 76.666 40.5 76.666ZM60.1583 30.0964C60.2152 30.8968 59.9814 31.6908 59.5 32.3327L36.1667 55.666C35.5436 56.2768 34.7058 56.6189 33.8333 56.6189C32.9608 56.6189 32.1231 56.2768 31.5 55.666L21.5 45.666C20.9491 45.0323 20.6576 44.2139 20.684 43.3746C20.7103 42.5353 21.0524 41.7368 21.642 41.1389C22.2315 40.5409 23.0251 40.1875 23.8639 40.1492C24.7028 40.111 25.5252 40.3908 26.1667 40.9327L33.8333 48.5994L54.8333 27.666C55.4752 27.1846 56.2693 26.9509 57.0696 27.0077C57.87 27.0646 58.623 27.4083 59.1904 27.9757C59.7577 28.543 60.1014 29.296 60.1583 30.0964Z" fill="#3BA561"/>
</svg>
