<svg width="80" height="80" viewBox="0 0 80 80" fill="none" xmlns="http://www.w3.org/2000/svg">
<path d="M71.6666 55.333L71.2333 55.7997C70.8235 56.2225 70.296 56.5122 69.7193 56.6311C69.1427 56.75 68.5436 56.6926 68 56.4664L54.3666 50.7997C53.625 50.4883 53.0226 49.9167 52.6727 49.1924C52.3228 48.4681 52.2495 47.6409 52.4666 46.8664L54.9 37.8664C47.4333 27.8664 32.5666 27.8664 25.1 37.8664L27.4333 44.8664C27.681 45.6099 27.6561 46.4172 27.3629 47.144C27.0698 47.8708 26.5276 48.4695 25.8333 48.833L12.0666 56.1664C11.5169 56.4643 10.8857 56.5766 10.2669 56.4865C9.64823 56.3964 9.0752 56.1087 8.6333 55.6664L8.29996 55.333C5.30591 52.2982 3.54045 48.2629 3.34352 44.0042C3.14659 39.7456 4.5321 35.5646 7.2333 32.2664C11.1934 27.3966 16.1892 23.4707 21.8573 20.7743C27.5254 18.0779 33.7232 16.6789 40 16.6789C46.2767 16.6789 52.4745 18.0779 58.1426 20.7743C63.8107 23.4707 68.8065 27.3966 72.7666 32.2664C75.4678 35.5646 76.8533 39.7456 76.6564 44.0042C76.4595 48.2629 74.694 52.2982 71.7 55.333H71.6666Z" fill="currentColor"/>
</svg>
