<svg width="81" height="80" viewBox="0 0 81 80" fill="none" xmlns="http://www.w3.org/2000/svg">
<path d="M7.16675 16.6665C7.16675 14.0143 8.22032 11.4708 10.0957 9.59544C11.971 7.72007 14.5146 6.6665 17.1667 6.6665H30.2667C31.3648 6.67218 32.4444 6.949 33.4098 7.47237C34.3751 7.99573 35.1962 8.74943 35.8001 9.6665L40.5001 16.6665H63.8334C66.4856 16.6665 69.0291 17.7201 70.9045 19.5954C72.7798 21.4708 73.8334 24.0143 73.8334 26.6665V63.3332C73.8334 65.9853 72.7798 68.5289 70.9045 70.4042C69.0291 72.2796 66.4856 73.3332 63.8334 73.3332H17.1667C14.5146 73.3332 11.971 72.2796 10.0957 70.4042C8.22032 68.5289 7.16675 65.9853 7.16675 63.3332V16.6665Z" fill="#ABABAB"/>
</svg>
