<svg width="80" height="80" viewBox="0 0 80 80" fill="none" xmlns="http://www.w3.org/2000/svg">
<g clip-path="url(#clip0_1721_308)">
<path d="M40 33.3334C43.5362 33.3334 46.9276 31.9287 49.428 29.4282C51.9285 26.9277 53.3333 23.5363 53.3333 20.0001C53.3333 16.4639 51.9285 13.0725 49.428 10.572C46.9276 8.07151 43.5362 6.66675 40 6.66675C36.4637 6.66675 33.0724 8.07151 30.5719 10.572C28.0714 13.0725 26.6666 16.4639 26.6666 20.0001C26.6666 23.5363 28.0714 26.9277 30.5719 29.4282C33.0724 31.9287 36.4637 33.3334 40 33.3334ZM38.4333 36.6667C30.0082 36.6667 21.9283 40.0136 15.9709 45.971C10.0135 51.9284 6.66663 60.0084 6.66663 68.4334C6.66663 71.1334 8.86663 73.3334 11.5666 73.3334H12.3C13.1 73.3334 13.7666 72.7668 13.9666 72.0001C14.9333 68.2668 16.7666 64.7668 18.3666 62.3001C18.8333 61.6001 19.8 61.9668 19.7 62.8001L18.8333 71.5001C18.7666 72.5001 19.5 73.3334 20.5 73.3334H59.5C59.7336 73.3346 59.9649 73.2866 60.1787 73.1926C60.3926 73.0987 60.5844 72.9608 60.7415 72.7879C60.8987 72.615 61.0178 72.411 61.091 72.1892C61.1642 71.9673 61.19 71.7325 61.1666 71.5001L60.2666 62.8334C60.2 61.9668 61.1666 61.6001 61.6333 62.3001C63.2333 64.7668 65.0666 68.3001 66.0333 71.9668C66.2333 72.7668 66.9 73.3334 67.7 73.3334H68.4333C71.1333 73.3334 73.3333 71.1334 73.3333 68.4334C73.3333 60.0084 69.9865 51.9284 64.029 45.971C58.0716 40.0136 49.9917 36.6667 41.5666 36.6667H38.4333Z" fill="#ABABAB"/>
<mask id="path-2-outside-1_1721_308" maskUnits="userSpaceOnUse" x="40.67" y="40.67" width="46" height="46" fill="black">
<rect fill="white" x="40.67" y="40.67" width="46" height="46"/>
<path fill-rule="evenodd" clip-rule="evenodd" d="M63.335 80C67.7548 80 71.9936 78.2442 75.1189 75.1189C78.2442 71.9936 80 67.7548 80 63.335C80 58.9152 78.2442 54.6763 75.1189 51.551C71.9936 48.4258 67.7548 46.67 63.335 46.67C58.9152 46.67 54.6763 48.4258 51.551 51.551C48.4258 54.6763 46.67 58.9152 46.67 63.335C46.67 67.7548 48.4258 71.9936 51.551 75.1189C54.6763 78.2442 58.9152 80 63.335 80ZM64.85 52.73C64.85 52.3282 64.6904 51.9428 64.4063 51.6587C64.1221 51.3746 63.7368 51.215 63.335 51.215C62.9332 51.215 62.5478 51.3746 62.2637 51.6587C61.9796 51.9428 61.82 52.3282 61.82 52.73V63.335C61.82 63.744 61.9715 64.1228 62.2745 64.3955L66.8195 68.9405C67.1112 69.1593 67.4721 69.2655 67.8359 69.2397C68.1996 69.2138 68.5419 69.0576 68.7998 68.7998C69.0576 68.5419 69.2138 68.1996 69.2397 67.8359C69.2655 67.4721 69.1593 67.1112 68.9405 66.8195L64.85 62.6987V52.73Z"/>
</mask>
<path fill-rule="evenodd" clip-rule="evenodd" d="M63.335 80C67.7548 80 71.9936 78.2442 75.1189 75.1189C78.2442 71.9936 80 67.7548 80 63.335C80 58.9152 78.2442 54.6763 75.1189 51.551C71.9936 48.4258 67.7548 46.67 63.335 46.67C58.9152 46.67 54.6763 48.4258 51.551 51.551C48.4258 54.6763 46.67 58.9152 46.67 63.335C46.67 67.7548 48.4258 71.9936 51.551 75.1189C54.6763 78.2442 58.9152 80 63.335 80ZM64.85 52.73C64.85 52.3282 64.6904 51.9428 64.4063 51.6587C64.1221 51.3746 63.7368 51.215 63.335 51.215C62.9332 51.215 62.5478 51.3746 62.2637 51.6587C61.9796 51.9428 61.82 52.3282 61.82 52.73V63.335C61.82 63.744 61.9715 64.1228 62.2745 64.3955L66.8195 68.9405C67.1112 69.1593 67.4721 69.2655 67.8359 69.2397C68.1996 69.2138 68.5419 69.0576 68.7998 68.7998C69.0576 68.5419 69.2138 68.1996 69.2397 67.8359C69.2655 67.4721 69.1593 67.1112 68.9405 66.8195L64.85 62.6987V52.73Z" fill="#ABABAB"/>
<path fill-rule="evenodd" clip-rule="evenodd" d="M63.335 80C67.7548 80 71.9936 78.2442 75.1189 75.1189C78.2442 71.9936 80 67.7548 80 63.335C80 58.9152 78.2442 54.6763 75.1189 51.551C71.9936 48.4258 67.7548 46.67 63.335 46.67C58.9152 46.67 54.6763 48.4258 51.551 51.551C48.4258 54.6763 46.67 58.9152 46.67 63.335C46.67 67.7548 48.4258 71.9936 51.551 75.1189C54.6763 78.2442 58.9152 80 63.335 80ZM64.85 52.73C64.85 52.3282 64.6904 51.9428 64.4063 51.6587C64.1221 51.3746 63.7368 51.215 63.335 51.215C62.9332 51.215 62.5478 51.3746 62.2637 51.6587C61.9796 51.9428 61.82 52.3282 61.82 52.73V63.335C61.82 63.744 61.9715 64.1228 62.2745 64.3955L66.8195 68.9405C67.1112 69.1593 67.4721 69.2655 67.8359 69.2397C68.1996 69.2138 68.5419 69.0576 68.7998 68.7998C69.0576 68.5419 69.2138 68.1996 69.2397 67.8359C69.2655 67.4721 69.1593 67.1112 68.9405 66.8195L64.85 62.6987V52.73Z" stroke="#1A1A1C" stroke-width="12" mask="url(#path-2-outside-1_1721_308)"/>
</g>
<defs>
<clipPath id="clip0_1721_308">
<rect width="80" height="80" fill="white"/>
</clipPath>
</defs>
</svg>
