<svg width="80" height="80" viewBox="0 0 80 80" fill="none" xmlns="http://www.w3.org/2000/svg">
<path fill-rule="evenodd" clip-rule="evenodd" d="M36.6334 10.5334C36.7034 10.0978 36.687 9.65273 36.585 9.22353C36.483 8.79433 36.2975 8.38942 36.039 8.03192C35.7806 7.67441 35.4543 7.37131 35.0787 7.13993C34.7031 6.90854 34.2856 6.7534 33.85 6.68336C33.4145 6.61332 32.9694 6.62976 32.5402 6.73173C32.111 6.8337 31.7061 7.01921 31.3486 7.27767C30.9911 7.53612 30.688 7.86247 30.4566 8.23806C30.2252 8.61365 30.0701 9.03114 30 9.4667L27.1667 26.6667H13.3334C12.4493 26.6667 11.6015 27.0179 10.9763 27.643C10.3512 28.2681 10 29.116 10 30C10 30.8841 10.3512 31.7319 10.9763 32.3571C11.6015 32.9822 12.4493 33.3334 13.3334 33.3334H26.0667L23.8334 46.6667H10C9.11597 46.6667 8.26812 47.0179 7.643 47.643C7.01788 48.2681 6.66669 49.116 6.66669 50C6.66669 50.8841 7.01788 51.7319 7.643 52.357C8.26812 52.9822 9.11597 53.3334 10 53.3334H22.7334L20.0667 69.4667C19.9852 70.3095 20.2276 71.1518 20.7445 71.8224C21.2615 72.4931 22.0143 72.9419 22.8501 73.0776C23.6859 73.2134 24.5421 73.026 25.2447 72.5535C25.9474 72.0809 26.4439 71.3587 26.6334 70.5334L29.5 53.3334H46.0667L43.4 69.4667C43.3185 70.3095 43.5609 71.1518 44.0778 71.8224C44.5948 72.4931 45.3476 72.9419 46.1834 73.0776C47.0193 73.2134 47.8754 73.026 48.5781 72.5535C49.2807 72.0809 49.7772 71.3587 49.9667 70.5334L52.8334 53.3334H66.6667C67.5507 53.3334 68.3986 52.9822 69.0237 52.357C69.6488 51.7319 70 50.8841 70 50C70 49.116 69.6488 48.2681 69.0237 47.643C68.3986 47.0179 67.5507 46.6667 66.6667 46.6667H53.9334L56.1667 33.3334H70C70.8841 33.3334 71.7319 32.9822 72.357 32.3571C72.9822 31.7319 73.3334 30.8841 73.3334 30C73.3334 29.116 72.9822 28.2681 72.357 27.643C71.7319 27.0179 70.8841 26.6667 70 26.6667H57.2667L59.9333 10.5334C60.0354 10.089 60.0452 9.62852 59.9621 9.18026C59.8791 8.73201 59.705 8.30555 59.4506 7.92726C59.1962 7.54896 58.8669 7.22688 58.483 6.98091C58.0992 6.73494 57.669 6.57032 57.219 6.49723C56.769 6.42413 56.3088 6.44412 55.8669 6.55595C55.4249 6.66778 55.0106 6.86907 54.6495 7.14739C54.2885 7.42571 53.9883 7.77513 53.7677 8.17406C53.547 8.57298 53.4106 9.01293 53.3667 9.4667L50.5 26.6667H33.9334L36.6 10.5334H36.6334ZM47.1667 46.6667L49.4 33.3334H32.8334L30.6 46.6667H47.1667Z" fill="#ABABAB"/>
</svg>
