<svg width="80" height="80" viewBox="0 0 80 80" fill="none" xmlns="http://www.w3.org/2000/svg">
<g clip-path="url(#clip0_517_1733)">
<path d="M63.3334 46.6668C64.2174 46.6668 65.0653 47.018 65.6904 47.6431C66.3155 48.2683 66.6667 49.1161 66.6667 50.0002V60.0002H76.6667C77.5508 60.0002 78.3986 60.3513 79.0237 60.9765C79.6489 61.6016 80 62.4494 80 63.3335C80 64.2175 79.6489 65.0654 79.0237 65.6905C78.3986 66.3156 77.5508 66.6668 76.6667 66.6668H66.6667V76.6668C66.6667 77.5509 66.3155 78.3987 65.6904 79.0238C65.0653 79.649 64.2174 80.0002 63.3334 80.0002C62.4493 80.0002 61.6015 79.649 60.9764 79.0238C60.3512 78.3987 60.0001 77.5509 60.0001 76.6668V66.6668H50.0001C49.116 66.6668 48.2682 66.3156 47.643 65.6905C47.0179 65.0654 46.6667 64.2175 46.6667 63.3335C46.6667 62.4494 47.0179 61.6016 47.643 60.9765C48.2682 60.3513 49.116 60.0002 50.0001 60.0002H60.0001V50.0002C60.0001 49.1161 60.3512 48.2683 60.9764 47.6431C61.6015 47.018 62.4493 46.6668 63.3334 46.6668Z" fill="#ABABAB"/>
<path d="M56.1 43.1002C56.9667 42.2002 56.9667 40.6002 55.8334 40.0335C51.4066 37.8109 46.5201 36.6578 41.5667 36.6668H38.4334C34.2617 36.6668 30.1309 37.4885 26.2768 39.0849C22.4227 40.6813 18.9208 43.0213 15.971 45.9711C10.0136 51.9285 6.66672 60.0085 6.66672 68.4335C6.66672 71.1335 8.86672 73.3335 11.5667 73.3335H12.3001C13.1001 73.3335 13.7667 72.7668 13.9667 72.0002C14.9334 68.2668 16.7667 64.7668 18.3667 62.3002C18.8334 61.6002 19.8 61.9668 19.7001 62.8002L18.8334 71.5002C18.7667 72.5002 19.5001 73.3335 20.5001 73.3335H45.9667C46.3667 73.3335 46.5334 72.3002 46.1667 72.1335C42.7334 70.4668 40 67.4002 40 63.3335C40 60.6813 41.0536 58.1378 42.929 56.2624C44.8043 54.3871 47.3479 53.3335 50 53.3335H51.6667C52.1087 53.3335 52.5327 53.1579 52.8452 52.8453C53.1578 52.5328 53.3334 52.1089 53.3334 51.6668V50.0002C53.3334 47.3335 54.3667 44.9002 56.1 43.1002ZM40 33.3335C43.5363 33.3335 46.9277 31.9287 49.4281 29.4283C51.9286 26.9278 53.3334 23.5364 53.3334 20.0002C53.3334 16.4639 51.9286 13.0726 49.4281 10.5721C46.9277 8.07159 43.5363 6.66683 40 6.66683C36.4638 6.66683 33.0724 8.07159 30.572 10.5721C28.0715 13.0726 26.6667 16.4639 26.6667 20.0002C26.6667 23.5364 28.0715 26.9278 30.572 29.4283C33.0724 31.9287 36.4638 33.3335 40 33.3335Z" fill="#ABABAB"/>
</g>
<defs>
<clipPath id="clip0_517_1733">
<rect width="80" height="80" fill="white"/>
</clipPath>
</defs>
</svg>
