<svg width="81" height="80" viewBox="0 0 81 80" fill="none" xmlns="http://www.w3.org/2000/svg">
<path d="M30.5 39.9999C31.384 39.9999 32.2319 40.3511 32.857 40.9762C33.4821 41.6013 33.8333 42.4492 33.8333 43.3332V49.9999C33.8333 50.8839 33.4821 51.7318 32.857 52.3569C32.2319 52.982 31.384 53.3332 30.5 53.3332C29.6159 53.3332 28.7681 52.982 28.143 52.3569C27.5178 51.7318 27.1667 50.8839 27.1667 49.9999V43.3332C27.1667 42.4492 27.5178 41.6013 28.143 40.9762C28.7681 40.3511 29.6159 39.9999 30.5 39.9999Z" fill="#F23F42"/>
<path fill-rule="evenodd" clip-rule="evenodd" d="M9.66666 10.0666C10.6038 8.99988 11.7573 8.14498 13.0504 7.55874C14.3436 6.9725 15.7468 6.66836 17.1667 6.66656H50.5C53.1522 6.66656 55.6957 7.72013 57.5711 9.5955C59.4464 11.4709 60.5 14.0144 60.5 16.6666V42.1332C60.5 43.5999 58.6667 44.4666 57.3333 43.9666C55.1956 43.1718 52.8504 43.1317 50.6868 43.8528C48.5231 44.5739 46.6709 46.013 45.4374 47.9313C44.2039 49.8497 43.6632 52.132 43.905 54.3998C44.1468 56.6677 45.1565 58.7847 46.7667 60.3999L46.8333 60.4999C47.0617 60.7328 47.2167 61.0277 47.2791 61.3479C47.3415 61.6681 47.3086 61.9996 47.1844 62.3013C47.0602 62.603 46.8501 62.8616 46.5803 63.045C46.3106 63.2284 45.9929 63.3286 45.6667 63.3332H45.5C45.058 63.3332 44.634 63.5088 44.3215 63.8214C44.0089 64.1339 43.8333 64.5579 43.8333 64.9999C43.831 66.4389 43.4561 67.8529 42.7451 69.104C42.0341 70.3551 41.0112 71.4008 39.776 72.1392C38.5409 72.8776 37.1355 73.2836 35.6969 73.3176C34.2583 73.3516 32.8353 73.0125 31.5667 72.3332L12.2333 62.0332C10.6949 61.1607 9.41535 59.8957 8.52527 58.3674C7.63518 56.839 7.16637 55.1019 7.16666 53.3332V16.6666C7.17935 14.2315 8.08013 11.8847 9.69999 10.0666H9.66666ZM14 16.5666C13.9825 16.5616 13.9641 16.5603 13.9461 16.5627C13.928 16.5651 13.9106 16.5711 13.895 16.5805C13.8794 16.5899 13.8659 16.6024 13.8553 16.6172C13.8447 16.632 13.8372 16.6488 13.8333 16.6666V53.3332C13.8333 54.5332 14.5 55.5999 15.4667 56.1999L34.7 66.4666C34.9541 66.6056 35.2401 66.676 35.5298 66.6709C35.8195 66.6657 36.1028 66.5851 36.3518 66.437C36.6008 66.289 36.8069 66.0785 36.9498 65.8265C37.0927 65.5745 37.1674 65.2896 37.1667 64.9999V26.7332C37.1623 26.4003 37.0584 26.0764 36.8683 25.8031C36.6782 25.5298 36.4106 25.3197 36.1 25.1999L14 16.5332V16.5666Z" fill="#F23F42"/>
<path d="M51.5 55.6665C51.0186 55.0246 50.7848 54.2306 50.8417 53.4303C50.8986 52.6299 51.2423 51.8769 51.8096 51.3095C52.377 50.7421 53.13 50.3985 53.9304 50.3416C54.7307 50.2847 55.5248 50.5184 56.1667 50.9999L70.5 65.2999V53.3332C70.5 52.4492 70.8512 51.6013 71.4763 50.9762C72.1014 50.3511 72.9493 49.9999 73.8333 49.9999C74.7174 49.9999 75.5652 50.3511 76.1904 50.9762C76.8155 51.6013 77.1667 52.4492 77.1667 53.3332V73.3332C77.1667 74.2173 76.8155 75.0651 76.1904 75.6902C75.5652 76.3154 74.7174 76.6665 73.8333 76.6665H53.8333C52.9493 76.6665 52.1014 76.3154 51.4763 75.6902C50.8512 75.0651 50.5 74.2173 50.5 73.3332C50.5 72.4492 50.8512 71.6013 51.4763 70.9762C52.1014 70.3511 52.9493 69.9999 53.8333 69.9999H65.8L51.4667 55.6665H51.5Z" fill="#F23F42"/>
</svg>
