<svg width="80" height="80" viewBox="0 0 80 80" fill="none" xmlns="http://www.w3.org/2000/svg" className="size-full">
<path d="M16.6667 60.0002C15.7826 60.0002 14.9348 60.3514 14.3097 60.9766C13.6845 61.6017 13.3333 62.4495 13.3333 63.3336C13.3333 65.9857 14.3869 68.5293 16.2623 70.4047C18.1376 72.28 20.6812 73.3336 23.3333 73.3336H56.6667C59.3188 73.3336 61.8624 72.28 63.7377 70.4047C65.6131 68.5293 66.6667 65.9857 66.6667 63.3336C66.6667 62.4495 66.3155 61.6017 65.6904 60.9766C65.0652 60.3514 64.2174 60.0002 63.3333 60.0002H16.6667ZM10.1333 25.8669C9.55555 25.4585 8.86279 25.2445 8.15531 25.256C7.44784 25.2674 6.76237 25.5037 6.1981 25.9306C5.63384 26.3575 5.22006 26.9529 5.01665 27.6306C4.81325 28.3083 4.83076 29.0332 5.06667 29.7002L12.5667 51.1002C12.7941 51.7507 13.2174 52.3147 13.7786 52.7147C14.3397 53.1146 15.0109 53.3308 15.7 53.3336H64.2C64.9113 53.3286 65.6023 53.0962 66.1721 52.6704C66.7418 52.2445 67.1604 51.6476 67.3667 50.9669L73.8333 29.4669C74.0414 28.7958 74.0322 28.0762 73.8068 27.4107C73.5815 26.7452 73.1517 26.1679 72.5787 25.7613C72.0057 25.3547 71.3189 25.1395 70.6164 25.1465C69.9138 25.1535 69.2314 25.3823 68.6667 25.8002L54.9667 35.8002L43.1333 18.0336L45.8667 15.3002C46.1267 15.043 46.3331 14.7367 46.474 14.3991C46.6149 14.0615 46.6874 13.6994 46.6874 13.3336C46.6874 12.9678 46.6149 12.6056 46.474 12.2681C46.3331 11.9305 46.1267 11.6242 45.8667 11.3669L41.9667 7.46691C41.7094 7.20689 41.4031 7.00047 41.0655 6.85959C40.728 6.71872 40.3658 6.64618 40 6.64618C39.6342 6.64618 39.2721 6.71872 38.9345 6.85959C38.5969 7.00047 38.2906 7.20689 38.0333 7.46691L34.1333 11.3669C33.8733 11.6242 33.6669 11.9305 33.526 12.2681C33.3851 12.6056 33.3126 12.9678 33.3126 13.3336C33.3126 13.6994 33.3851 14.0615 33.526 14.3991C33.6669 14.7367 33.8733 15.043 34.1333 15.3002L36.8667 18.0336L24.8333 36.1002L10.1333 25.8669Z" fill="#ED9F2E"/>
</svg>
