<svg width="80" height="80" viewBox="0 0 80 80" fill="none" xmlns="http://www.w3.org/2000/svg">
<path fill-rule="evenodd" clip-rule="evenodd" d="M29 7.49919C31.3966 5.35548 34.3641 3.95394 37.5421 3.46483C40.7201 2.97572 43.9717 3.42012 46.902 4.74401C49.8322 6.0679 52.3148 8.21431 54.0483 10.9224C55.7817 13.6306 56.6914 16.7839 56.6667 19.9992V29.9992H60C62.6522 29.9992 65.1957 31.0528 67.0711 32.9281C68.9464 34.8035 70 37.347 70 39.9992V66.6659C70 69.318 68.9464 71.8616 67.0711 73.7369C65.1957 75.6123 62.6522 76.6658 60 76.6658H20C17.3479 76.6658 14.8043 75.6123 12.9289 73.7369C11.0536 71.8616 10 69.318 10 66.6659V39.9992C10 37.347 11.0536 34.8035 12.9289 32.9281C14.8043 31.0528 17.3479 29.9992 20 29.9992H50V19.9992C49.9976 18.0774 49.4415 16.1971 48.3982 14.5831C47.3549 12.9692 45.8687 11.6901 44.1174 10.8988C42.366 10.1075 40.4238 9.83767 38.5231 10.1215C36.6224 10.4053 34.8438 11.2308 33.4 12.4992C32.737 13.0871 31.8675 13.3875 30.983 13.3344C30.0985 13.2812 29.2712 12.8789 28.6833 12.2159C28.0955 11.5528 27.795 10.6834 27.8482 9.79884C27.9013 8.91429 28.3036 8.08708 28.9667 7.49919H29ZM46.6667 46.6659C46.6655 47.8349 46.3569 48.9832 45.7718 49.9953C45.1867 51.0075 44.3458 51.848 43.3333 52.4325V59.9992C43.3333 60.8832 42.9822 61.7311 42.357 62.3562C41.7319 62.9813 40.8841 63.3325 40 63.3325C39.116 63.3325 38.2681 62.9813 37.643 62.3562C37.0179 61.7311 36.6667 60.8832 36.6667 59.9992V52.4325C35.653 51.8473 34.8112 51.0054 34.2261 49.9916C33.6409 48.9778 33.3331 47.8278 33.3334 46.6573C33.3337 45.4868 33.6421 44.337 34.2278 43.3235C34.8135 42.31 35.6556 41.4686 36.6696 40.8838C37.6837 40.2991 38.8338 39.9916 40.0043 39.9924C41.1748 39.9931 42.3245 40.302 43.3378 40.8881C44.3511 41.4741 45.1922 42.3166 45.7765 43.3309C46.3609 44.3451 46.6679 45.4953 46.6667 46.6659Z" fill="currentColor"/>
</svg>
