<svg width="80" height="80" viewBox="0 0 80 80" fill="none" xmlns="http://www.w3.org/2000/svg">
<path fill-rule="evenodd" clip-rule="evenodd" d="M20 29.9994H23.3334V19.9994C23.3334 15.5791 25.0893 11.3398 28.2149 8.21424C31.3405 5.08863 35.5798 3.33268 40 3.33268C44.4203 3.33268 48.6595 5.08863 51.7851 8.21424C54.9107 11.3398 56.6667 15.5791 56.6667 19.9994V29.9994H60C62.6522 29.9994 65.1957 31.0529 67.0711 32.9283C68.9465 34.8036 70 37.3472 70 39.9994V66.666C70 69.3182 68.9465 71.8617 67.0711 73.7371C65.1957 75.6125 62.6522 76.666 60 76.666H20C17.3479 76.666 14.8043 75.6125 12.929 73.7371C11.0536 71.8617 10 69.3182 10 66.666V39.9994C10 37.3472 11.0536 34.8036 12.929 32.9283C14.8043 31.0529 17.3479 29.9994 20 29.9994ZM50 19.9994V29.9994H30V19.9994C30 17.3472 31.0536 14.8036 32.929 12.9283C34.8043 11.0529 37.3479 9.99935 40 9.99935C42.6522 9.99935 45.1957 11.0529 47.0711 12.9283C48.9465 14.8036 50 17.3472 50 19.9994ZM46.6667 46.666C46.6655 47.8351 46.3569 48.9833 45.7718 49.9955C45.1868 51.0076 44.3458 51.8481 43.3334 52.4327V59.9994C43.3334 60.8834 42.9822 61.7313 42.3571 62.3564C41.7319 62.9815 40.8841 63.3327 40 63.3327C39.116 63.3327 38.2681 62.9815 37.643 62.3564C37.0179 61.7313 36.6667 60.8834 36.6667 59.9994V52.4327C35.653 51.8474 34.8112 51.0056 34.2261 49.9918C33.641 48.978 33.3331 47.828 33.3334 46.6575C33.3337 45.4869 33.6422 44.3371 34.2278 43.3236C34.8135 42.3101 35.6557 41.4687 36.6697 40.884C37.6837 40.2992 38.8338 39.9918 40.0043 39.9925C41.1748 39.9933 42.3245 40.3022 43.3378 40.8882C44.3511 41.4743 45.1922 42.3168 45.7765 43.331C46.3609 44.3453 46.6679 45.4955 46.6667 46.666Z" fill="currentColor"/>
</svg>
