<svg width="80" height="80" viewBox="0 0 80 80" fill="none" xmlns="http://www.w3.org/2000/svg">
<path d="M19.9998 13.3335C19.1158 13.3335 18.2679 13.6847 17.6428 14.3098C17.0177 14.9349 16.6665 15.7828 16.6665 16.6668V63.3335C16.6665 64.2175 17.0177 65.0654 17.6428 65.6905C18.2679 66.3156 19.1158 66.6668 19.9998 66.6668H29.9998C30.8839 66.6668 31.7317 66.3156 32.3569 65.6905C32.982 65.0654 33.3332 64.2175 33.3332 63.3335V16.6668C33.3332 15.7828 32.982 14.9349 32.3569 14.3098C31.7317 13.6847 30.8839 13.3335 29.9998 13.3335H19.9998ZM49.9998 13.3335C49.1158 13.3335 48.2679 13.6847 47.6428 14.3098C47.0177 14.9349 46.6665 15.7828 46.6665 16.6668V63.3335C46.6665 64.2175 47.0177 65.0654 47.6428 65.6905C48.2679 66.3156 49.1158 66.6668 49.9998 66.6668H59.9998C60.8839 66.6668 61.7317 66.3156 62.3569 65.6905C62.982 65.0654 63.3332 64.2175 63.3332 63.3335V16.6668C63.3332 15.7828 62.982 14.9349 62.3569 14.3098C61.7317 13.6847 60.8839 13.3335 59.9998 13.3335H49.9998Z" fill="currentColor"/>
</svg>
