<svg width="80" height="80" viewBox="0 0 80 80" fill="none" xmlns="http://www.w3.org/2000/svg">
<path d="M46.5334 18.1987L61.8 33.4654C62.1099 33.7778 62.4786 34.0258 62.8848 34.195C63.291 34.3642 63.7267 34.4514 64.1667 34.4514C64.6067 34.4514 65.0424 34.3642 65.4486 34.195C65.8548 34.0258 66.2235 33.7778 66.5334 33.4654L71.1334 28.8654C72.375 27.6163 73.072 25.9266 73.072 24.1654C73.072 22.4041 72.375 20.7145 71.1334 19.4654L60.5334 8.86538C59.2843 7.6237 57.5946 6.92676 55.8334 6.92676C54.0721 6.92676 52.3825 7.6237 51.1334 8.86538L46.5334 13.4654C46.2209 13.7753 45.973 14.1439 45.8037 14.5501C45.6345 14.9563 45.5474 15.392 45.5474 15.832C45.5474 16.2721 45.6345 16.7078 45.8037 17.114C45.973 17.5202 46.2209 17.8888 46.5334 18.1987ZM7.03337 67.1987L9.4667 53.132C9.81394 51.1008 10.7802 49.2265 12.2334 47.7654L38.4667 21.532C38.7766 21.2196 39.1453 20.9716 39.5514 20.8024C39.9576 20.6332 40.3933 20.546 40.8334 20.546C41.2734 20.546 41.7091 20.6332 42.1153 20.8024C42.5215 20.9716 42.8902 21.2196 43.2 21.532L58.4667 36.7987C58.7791 37.1086 59.0271 37.4773 59.1963 37.8835C59.3656 38.2897 59.4527 38.7253 59.4527 39.1654C59.4527 39.6054 59.3656 40.0411 59.1963 40.4473C59.0271 40.8535 58.7791 41.2222 58.4667 41.532L32.2334 67.7654C30.7812 69.2125 28.9194 70.1783 26.9 70.532L12.8 72.9654C12.0128 73.0991 11.205 73.0423 10.4443 72.7998C9.68348 72.5573 8.99185 72.1361 8.42724 71.5715C7.86262 71.0069 7.44144 70.3153 7.19893 69.5545C6.95643 68.7937 6.89966 67.9859 7.03337 67.1987Z" fill="currentColor"/>
</svg>
