<svg width="80" height="80" viewBox="0 0 80 80" xmlns="http://www.w3.org/2000/svg" className="size-full">
  <path id="bad" d="M6.66667 10.0002C6.66667 9.11612 7.01786 8.26827 7.64298 7.64315C8.2681 7.01803 9.11595 6.66684 10 6.66684C18.3171 6.66684 26.5527 8.305 34.2366 11.4878C41.9206 14.6706 48.9024 19.3357 54.7834 25.2167C60.6645 31.0978 65.3296 38.0796 68.5124 45.7636C71.6952 53.4475 73.3333 61.6831 73.3333 70.0002C73.3333 70.8842 72.9821 71.7321 72.357 72.3572C71.7319 72.9823 70.8841 73.3335 70 73.3335C69.1159 73.3335 68.2681 72.9823 67.643 72.3572C67.0179 71.7321 66.6667 70.8842 66.6667 70.0002C66.6667 62.5586 65.2009 55.1899 62.3532 48.3148C59.5054 41.4397 55.3314 35.1928 50.0694 29.9308C44.8074 24.6688 38.5605 20.4948 31.6854 17.647C24.8103 14.7992 17.4416 13.3335 10 13.3335C9.11595 13.3335 8.2681 12.9823 7.64298 12.3572C7.01786 11.7321 6.66667 10.8842 6.66667 10.0002Z" fill="currentColor"/>
  <path id="good" d="M6.66667 26.6668C6.66667 25.7828 7.01786 24.9349 7.64298 24.3098C8.2681 23.6847 9.11595 23.3335 10 23.3335C22.3768 23.3335 34.2466 28.2501 42.9983 37.0018C51.75 45.7535 56.6667 57.6234 56.6667 70.0002C56.6667 70.8842 56.3155 71.7321 55.6904 72.3572C55.0652 72.9823 54.2174 73.3335 53.3333 73.3335C52.4493 73.3335 51.6014 72.9823 50.9763 72.3572C50.3512 71.7321 50 70.8842 50 70.0002C50 59.3915 45.7857 49.2173 38.2843 41.7159C30.7828 34.2144 20.6087 30.0002 10 30.0002C9.11595 30.0002 8.2681 29.649 7.64298 29.0239C7.01786 28.3987 6.66667 27.5509 6.66667 26.6668Z" fill="currentColor"/>
  <path id="very-good" d="M10 40.0002C9.11595 40.0002 8.2681 40.3513 7.64298 40.9765C7.01786 41.6016 6.66667 42.4494 6.66667 43.3335C6.66667 44.2175 7.01786 45.0654 7.64298 45.6905C8.2681 46.3156 9.11595 46.6668 10 46.6668C16.1884 46.6668 22.1233 49.1251 26.4992 53.501C30.875 57.8768 33.3333 63.8118 33.3333 70.0002C33.3333 70.8842 33.6845 71.7321 34.3096 72.3572C34.9348 72.9823 35.7826 73.3335 36.6667 73.3335C37.5507 73.3335 38.3986 72.9823 39.0237 72.3572C39.6488 71.7321 40 70.8842 40 70.0002C40 62.0437 36.8393 54.413 31.2132 48.7869C25.5871 43.1609 17.9565 40.0002 10 40.0002ZM6.66667 59.4335C6.66667 57.9002 7.9 56.6668 9.43334 56.6668C17.1 56.6668 23.3333 62.9002 23.3333 70.5668C23.3333 72.1002 22.1 73.3335 20.5667 73.3335H10C9.11595 73.3335 8.2681 72.9823 7.64298 72.3572C7.01786 71.7321 6.66667 70.8842 6.66667 70.0002V59.4335Z" fill="currentColor"/>
</svg>
