<svg width="80" height="80" viewBox="0 0 80 80" fill="none" xmlns="http://www.w3.org/2000/svg">
<path d="M43.3332 19.9998C43.3332 19.1158 42.982 18.2679 42.3569 17.6428C41.7317 17.0177 40.8839 16.6665 39.9998 16.6665C39.1158 16.6665 38.2679 17.0177 37.6428 17.6428C37.0177 18.2679 36.6665 19.1158 36.6665 19.9998V36.6665H19.9998C19.1158 36.6665 18.2679 37.0177 17.6428 37.6428C17.0177 38.2679 16.6665 39.1158 16.6665 39.9998C16.6665 40.8839 17.0177 41.7317 17.6428 42.3569C18.2679 42.982 19.1158 43.3332 19.9998 43.3332H36.6665V59.9998C36.6665 60.8839 37.0177 61.7317 37.6428 62.3569C38.2679 62.982 39.1158 63.3332 39.9998 63.3332C40.8839 63.3332 41.7317 62.982 42.3569 62.3569C42.982 61.7317 43.3332 60.8839 43.3332 59.9998V43.3332H59.9998C60.8839 43.3332 61.7317 42.982 62.3569 42.3569C62.982 41.7317 63.3332 40.8839 63.3332 39.9998C63.3332 39.1158 62.982 38.2679 62.3569 37.6428C61.7317 37.0177 60.8839 36.6665 59.9998 36.6665H43.3332V19.9998Z" fill="currentColor"/>
</svg>
