<svg width="80" height="80" viewBox="0 0 80 80" fill="none" xmlns="http://www.w3.org/2000/svg">
<path d="M7.66672 24.3335C7.05597 24.9566 6.71387 25.7943 6.71387 26.6668C6.71387 27.5393 7.05597 28.377 7.66672 29.0001L24.3334 45.6668C24.9753 46.1482 25.7693 46.382 26.5697 46.3251C27.3701 46.2682 28.123 45.9245 28.6904 45.3572C29.2578 44.7898 29.6015 44.0368 29.6583 43.2364C29.7152 42.4361 29.4815 41.642 29.0001 41.0001L18.0667 30.0001H36.6667C42.8551 30.0001 48.79 32.4585 53.1659 36.8343C57.5417 41.2102 60.0001 47.1451 60.0001 53.3335V66.6668C60.0001 67.5508 60.3512 68.3987 60.9764 69.0238C61.6015 69.6489 62.4493 70.0001 63.3334 70.0001C64.2174 70.0001 65.0653 69.6489 65.6904 69.0238C66.3155 68.3987 66.6667 67.5508 66.6667 66.6668V53.3335C66.6667 49.3938 65.8908 45.4927 64.3831 41.853C62.8755 38.2132 60.6657 34.906 57.8799 32.1203C55.0942 29.3345 51.787 27.1247 48.1472 25.6171C44.5075 24.1094 40.6064 23.3335 36.6667 23.3335H18.0334L29.0334 12.3335C29.5753 11.692 29.8551 10.8696 29.8168 10.0307C29.7786 9.19186 29.4252 8.39833 28.8272 7.80878C28.2292 7.21922 27.4308 6.87708 26.5915 6.85076C25.7521 6.82444 24.9338 7.11587 24.3001 7.6668L7.63339 24.3335H7.66672Z" fill="currentColor"/>
</svg>
