<svg width="81" height="80" viewBox="0 0 81 80" fill="none" xmlns="http://www.w3.org/2000/svg">
<path d="M40.5 10.0002C40.5 9.11618 40.1488 8.26833 39.5237 7.64321C38.8986 7.01809 38.0507 6.6669 37.1667 6.6669H36.9667C36.504 6.66377 36.0458 6.75699 35.6211 6.94063C35.1964 7.12428 34.8146 7.39432 34.5 7.73357L20.2334 23.3336H10.5C9.61597 23.3336 8.76812 23.6848 8.143 24.3099C7.51788 24.935 7.16669 25.7828 7.16669 26.6669V53.3336C7.16669 54.2176 7.51788 55.0655 8.143 55.6906C8.76812 56.3157 9.61597 56.6669 10.5 56.6669H20.2334L34.5 72.2669C34.8146 72.6061 35.1964 72.8762 35.6211 73.0598C36.0458 73.2435 36.504 73.3367 36.9667 73.3336H37.1667C38.0507 73.3336 38.8986 72.9824 39.5237 72.3573C40.1488 71.7321 40.5 70.8843 40.5 70.0002V10.0002ZM50.8334 69.1669C48.9 69.6336 47.1667 68.0669 47.1667 66.1002V66.0002C47.1667 64.3336 48.4 62.9336 50 62.5002C54.9289 61.1464 59.2769 58.2115 62.3758 54.1466C65.4748 50.0817 67.1532 45.1117 67.1532 40.0002C67.1532 34.8888 65.4748 29.9188 62.3758 25.8538C59.2769 21.7889 54.9289 18.8541 50 17.5002C49.2085 17.3098 48.5018 16.8637 47.9896 16.2309C47.4774 15.5981 47.1881 14.8141 47.1667 14.0002V13.9002C47.1667 11.9002 48.9 10.3669 50.8334 10.8336C57.3816 12.41 63.2088 16.1442 67.3769 21.4349C71.5451 26.7255 73.8116 33.2649 73.8116 40.0002C73.8116 46.7355 71.5451 53.2749 67.3769 58.5656C63.2088 63.8563 57.3816 67.5904 50.8334 69.1669Z" fill="#ABABAB"/>
<path d="M51.0334 55.0334C49.1334 55.9667 47.1667 54.3667 47.1667 52.2667V51.8C47.1667 50.3667 48.1 49.1334 49.2667 48.4C50.6702 47.4935 51.8241 46.2497 52.6232 44.7824C53.4222 43.315 53.8408 41.6708 53.8408 40C53.8408 38.3292 53.4222 36.6851 52.6232 35.2177C51.8241 33.7503 50.6702 32.5066 49.2667 31.6C48.1 30.8334 47.1667 29.6 47.1667 28.2V27.7334C47.1667 25.6334 49.1334 24.0667 51.0334 24.9667C53.8692 26.3241 56.2634 28.4559 57.9393 31.116C59.6151 33.7761 60.5044 36.856 60.5044 40C60.5044 43.144 59.6151 46.2239 57.9393 48.884C56.2634 51.5441 53.8692 53.676 51.0334 55.0334Z" fill="#ABABAB"/>
</svg>
