<svg width="81" height="80" viewBox="0 0 81 80" fill="none" xmlns="http://www.w3.org/2000/svg">
<path d="M48 3.33325C49.3667 3.33325 50.5 4.46659 50.5 5.83325V9.99992H68C69.3667 9.99992 70.5 11.1333 70.5 12.4999V14.1666C70.5 15.5333 69.3667 16.6666 68 16.6666H13C12.337 16.6666 11.7011 16.4032 11.2322 15.9344C10.7634 15.4655 10.5 14.8296 10.5 14.1666V12.4999C10.5 11.1333 11.6333 9.99992 13 9.99992H30.5V5.83325C30.5 4.46659 31.6333 3.33325 33 3.33325H48Z" fill="currentColor"/>
<path fill-rule="evenodd" clip-rule="evenodd" d="M17.3667 23.3333C16.9116 23.3324 16.4612 23.4248 16.0432 23.6047C15.6251 23.7846 15.2484 24.0482 14.9361 24.3792C14.6238 24.7102 14.3826 25.1017 14.2273 25.5295C14.0721 25.9573 14.0061 26.4123 14.0334 26.8666L16.5667 67.2999C16.728 69.8408 17.8523 72.2245 19.7105 73.965C21.5686 75.7055 24.0207 76.6717 26.5667 76.6666H54.4334C56.9794 76.6717 59.4315 75.7055 61.2896 73.965C63.1478 72.2245 64.2721 69.8408 64.4334 67.2999L66.9334 26.8666C66.9607 26.4123 66.8947 25.9573 66.7394 25.5295C66.5842 25.1017 66.343 24.7102 66.0307 24.3792C65.7184 24.0482 65.3416 23.7846 64.9236 23.6047C64.5056 23.4248 64.0551 23.3324 63.6001 23.3333H17.4H17.3667ZM37.1667 39.9999C37.1667 39.1159 36.8155 38.268 36.1904 37.6429C35.5653 37.0178 34.7174 36.6666 33.8334 36.6666C32.9493 36.6666 32.1015 37.0178 31.4764 37.6429C30.8512 38.268 30.5 39.1159 30.5 39.9999V59.9999C30.5 60.884 30.8512 61.7318 31.4764 62.3569C32.1015 62.9821 32.9493 63.3333 33.8334 63.3333C34.7174 63.3333 35.5653 62.9821 36.1904 62.3569C36.8155 61.7318 37.1667 60.884 37.1667 59.9999V39.9999ZM47.1667 36.6666C48.0508 36.6666 48.8986 37.0178 49.5237 37.6429C50.1489 38.268 50.5001 39.1159 50.5001 39.9999V59.9999C50.5001 60.884 50.1489 61.7318 49.5237 62.3569C48.8986 62.9821 48.0508 63.3333 47.1667 63.3333C46.2827 63.3333 45.4348 62.9821 44.8097 62.3569C44.1846 61.7318 43.8334 60.884 43.8334 59.9999V39.9999C43.8334 39.1159 44.1846 38.268 44.8097 37.6429C45.4348 37.0178 46.2827 36.6666 47.1667 36.6666Z" fill="currentColor"/>
</svg>
