<svg width="81" height="80" viewBox="0 0 81 80" fill="none" xmlns="http://www.w3.org/2000/svg" className="size-full">
<g clip-path="url(#clip0_577_666)">
<path d="M38.9339 36.6667C30.5089 36.6667 22.4289 40.0135 16.4715 45.9709C10.5141 51.9283 7.16724 60.0083 7.16724 68.4333C7.16724 71.1333 9.36724 73.3333 12.0672 73.3333H12.8006C13.6006 73.3333 14.2672 72.7667 14.4672 72C15.4339 68.2667 17.2672 64.7667 18.8672 62.3C19.3339 61.6 20.3006 61.9667 20.2006 62.8L19.3672 71.5C19.2672 72.5 20.0339 73.3333 21.0339 73.3333H46.4672C46.8672 73.3333 47.0339 72.3 46.6672 72.1333C43.2339 70.4667 40.5006 67.4 40.5006 63.3333C40.5006 60.6812 41.5541 58.1376 43.4295 56.2623C45.3049 54.3869 47.8484 53.3333 50.5006 53.3333H67.2339C68.5006 53.3333 69.2672 52 68.5672 50.9333C65.676 46.5478 61.7413 42.9486 57.1161 40.4586C52.491 37.9686 47.3201 36.6656 42.0672 36.6667H38.9339ZM40.5006 33.3333C44.0368 33.3333 47.4282 31.9286 49.9287 29.4281C52.4291 26.9276 53.8339 23.5362 53.8339 20C53.8339 16.4638 52.4291 13.0724 49.9287 10.5719C47.4282 8.07141 44.0368 6.66666 40.5006 6.66666C36.9643 6.66666 33.573 8.07141 31.0725 10.5719C28.572 13.0724 27.1672 16.4638 27.1672 20C27.1672 23.5362 28.572 26.9276 31.0725 29.4281C33.573 31.9286 36.9643 33.3333 40.5006 33.3333Z" fill="currentColor"/>
<path d="M50.5006 60C49.6165 60 48.7687 60.3512 48.1435 60.9763C47.5184 61.6014 47.1672 62.4493 47.1672 63.3333C47.1672 64.2174 47.5184 65.0652 48.1435 65.6903C48.7687 66.3155 49.6165 66.6667 50.5006 66.6667H77.1672C78.0513 66.6667 78.8991 66.3155 79.5243 65.6903C80.1494 65.0652 80.5006 64.2174 80.5006 63.3333C80.5006 62.4493 80.1494 61.6014 79.5243 60.9763C78.8991 60.3512 78.0513 60 77.1672 60H50.5006Z" fill="#ABABAB"/>
</g>
<defs>
<clipPath id="clip0_577_666">
<rect width="80" height="80" fill="white" transform="translate(0.5)"/>
</clipPath>
</defs>
</svg>
