<svg width="81" height="80" viewBox="0 0 81 80" fill="none" xmlns="http://www.w3.org/2000/svg">
<g clip-path="url(#clip0_517_1761)">
<path fill-rule="evenodd" clip-rule="evenodd" d="M77.1668 41.2668C77.1001 42.5335 75.6668 43.2002 74.5668 42.6002C71.3461 40.9262 67.778 40.0301 64.1485 39.9838C60.519 39.9375 56.9292 40.7423 53.6668 42.3335C53.436 42.4365 53.1862 42.4897 52.9335 42.4897C52.6808 42.4897 52.4309 42.4365 52.2001 42.3335C45.6103 39.5219 38.23 39.1699 31.4026 41.3417C24.5751 43.5135 18.7545 48.0647 15.0001 54.1668C14.6668 54.6668 14.6668 55.3335 15.0001 55.8335C16.2335 57.7668 17.6668 59.6002 19.2668 61.2002C20.0668 62.0002 21.4001 61.7002 21.9335 60.7002C22.5668 59.4335 23.2335 58.2668 23.8668 57.3002C24.3335 56.6002 25.3001 56.9668 25.2001 57.8002L24.5668 64.3335C24.5001 64.9668 24.8001 65.5668 25.3335 65.9002C29.9325 68.5959 35.1693 70.0115 40.5001 70.0002C40.7789 69.999 41.0509 70.0852 41.2781 70.2466C41.5053 70.408 41.6762 70.6366 41.7668 70.9002C42.1001 72.0002 42.6001 73.0668 43.1001 74.0668C43.7001 75.2002 43.0335 76.6002 41.7668 76.6335L40.5001 76.6668C33.1951 76.6625 26.0579 74.4762 20.0038 70.3884C13.9496 66.3006 9.25443 60.4976 6.52036 53.7236C3.78628 46.9495 3.13793 39.5132 4.65845 32.3681C6.17896 25.2231 9.79902 18.6952 15.0544 13.6213C20.3098 8.54746 26.961 5.15904 34.155 3.89055C41.349 2.62207 48.758 3.53134 55.4318 6.50178C62.1056 9.47222 67.74 14.3684 71.6125 20.5625C75.4851 26.7566 77.4192 33.9662 77.1668 41.2668ZM52.1668 25.0002C52.1668 26.5323 51.865 28.0494 51.2787 29.4648C50.6924 30.8803 49.8331 32.1664 48.7497 33.2498C47.6664 34.3331 46.3802 35.1925 44.9648 35.7788C43.5493 36.3651 42.0322 36.6668 40.5001 36.6668C38.9681 36.6668 37.451 36.3651 36.0355 35.7788C34.62 35.1925 33.3339 34.3331 32.2506 33.2498C31.1672 32.1664 30.3079 30.8803 29.7215 29.4648C29.1352 28.0494 28.8335 26.5323 28.8335 25.0002C28.8335 21.906 30.0626 18.9385 32.2506 16.7506C34.4385 14.5627 37.4059 13.3335 40.5001 13.3335C43.5943 13.3335 46.5618 14.5627 48.7497 16.7506C50.9376 18.9385 52.1668 21.906 52.1668 25.0002Z" fill="#ABABAB"/>
<path d="M80.5 63.3335C80.5 67.7537 78.744 71.993 75.6184 75.1186C72.4928 78.2442 68.2536 80.0001 63.8333 80.0001C59.413 80.0001 55.1738 78.2442 52.0482 75.1186C48.9226 71.993 47.1666 67.7537 47.1666 63.3335C47.1666 58.9132 48.9226 54.674 52.0482 51.5484C55.1738 48.4228 59.413 46.6668 63.8333 46.6668C68.2536 46.6668 72.4928 48.4228 75.6184 51.5484C78.744 54.674 80.5 58.9132 80.5 63.3335Z" fill="#ABABAB"/>
</g>
<defs>
<clipPath id="clip0_517_1761">
<rect width="80" height="80" fill="white" transform="translate(0.5)"/>
</clipPath>
</defs>
</svg>
